<svg width="63" height="63" viewBox="0 0 63 63" fill="none" xmlns="http://www.w3.org/2000/svg">
<g clip-path="url(#clip0)">
<path d="M44.8793 57.0249C40.5145 55.6081 37.5572 51.5269 37.5572 46.9205V43.0413H26.1795V46.9205C26.1795 51.527 23.2222 55.6082 18.8574 57.0249H44.8793Z" fill="url(#paint0_linear)"/>
<path d="M37.5574 46.9205V43.0413H26.1797V45.5887L37.5676 57.0249H44.8795C40.5147 55.6082 37.5574 51.527 37.5574 46.9205Z" fill="url(#paint1_linear)"/>
<path d="M58.9585 45.5887H4.7788C2.60282 45.5887 0.838867 43.8172 0.838867 41.6321V5.31527C0.838867 3.13007 2.60282 1.35864 4.7788 1.35864H58.9585C61.1345 1.35864 62.8985 3.13007 62.8985 5.31527V41.6321C62.8985 43.8172 61.1345 45.5887 58.9585 45.5887Z" fill="url(#paint2_linear)"/>
<path d="M56.8217 42.6712H6.91637C5.18648 42.6712 3.78418 41.263 3.78418 39.5258V7.42158C3.78418 5.68437 5.18648 4.27612 6.91637 4.27612H56.8217C58.5516 4.27612 59.9539 5.68437 59.9539 7.42158V39.5258C59.9537 41.263 58.5514 42.6712 56.8217 42.6712Z" fill="url(#paint3_linear)"/>
<path d="M55.2825 40.7751H8.45404C6.86519 40.7751 5.57715 39.4816 5.57715 37.886V9.0612C5.57715 7.46562 6.86519 6.17212 8.45404 6.17212H55.2824C56.8712 6.17212 58.1593 7.46562 58.1593 9.0612V37.8859C58.1594 39.4816 56.8714 40.7751 55.2825 40.7751Z" fill="url(#paint4_linear)"/>
<path d="M23.2302 32.7896H10.5266C9.6441 32.7896 8.92871 32.0712 8.92871 31.185V15.7623C8.92871 14.8761 9.6441 14.1577 10.5266 14.1577H23.2302C24.1126 14.1577 24.828 14.8761 24.828 15.7623V31.1849C24.828 32.0711 24.1126 32.7896 23.2302 32.7896Z" fill="#B5DBFF"/>
<path d="M37.8821 18.8014H29.1697C28.5312 18.8014 28.0137 18.2816 28.0137 17.6404V15.3186C28.0137 14.6774 28.5312 14.1577 29.1697 14.1577H37.8821C38.5206 14.1577 39.0381 14.6774 39.0381 15.3186V17.6404C39.0381 18.2815 38.5205 18.8014 37.8821 18.8014Z" fill="#B5DBFF"/>
<path d="M53.6521 18.8014H42.7976C42.1591 18.8014 41.6416 18.2816 41.6416 17.6404V15.3186C41.6416 14.6774 42.1591 14.1577 42.7976 14.1577H53.6521C54.2906 14.1577 54.8081 14.6774 54.8081 15.3186V17.6404C54.8081 18.2815 54.2906 18.8014 53.6521 18.8014Z" fill="#B5DBFF"/>
<path d="M49.2957 25.7953H53.6519C54.2904 25.7953 54.8079 25.2755 54.8079 24.6343V22.3125C54.8079 21.6713 54.2904 21.1516 53.6519 21.1516H49.2957C48.6572 21.1516 48.1396 21.6713 48.1396 22.3125V24.6343C48.1396 25.2755 48.6573 25.7953 49.2957 25.7953Z" fill="#B5DBFF"/>
<path d="M29.1687 25.7953H44.3794C45.0179 25.7953 45.5354 25.2755 45.5354 24.6343V22.3125C45.5354 21.6713 45.0179 21.1516 44.3794 21.1516H29.1687C28.5302 21.1516 28.0127 21.6713 28.0127 22.3125V24.6343C28.0127 25.2755 28.5303 25.7953 29.1687 25.7953Z" fill="#B5DBFF"/>
<path d="M37.8811 32.7896H29.1687C28.5302 32.7896 28.0127 32.2699 28.0127 31.6287V29.3069C28.0127 28.6657 28.5302 28.146 29.1687 28.146H37.8811C38.5196 28.146 39.0372 28.6657 39.0372 29.3069V31.6287C39.0372 32.2698 38.5195 32.7896 37.8811 32.7896Z" fill="#B5DBFF"/>
<path d="M53.6521 32.7896H42.7976C42.1591 32.7896 41.6416 32.2699 41.6416 31.6287V29.3069C41.6416 28.6657 42.1591 28.146 42.7976 28.146H53.6521C54.2906 28.146 54.8081 28.6657 54.8081 29.3069V31.6287C54.8081 32.2698 54.2906 32.7896 53.6521 32.7896Z" fill="#B5DBFF"/>
<path d="M31.8686 5.48477C32.5334 5.48477 33.0722 4.94362 33.0722 4.27607C33.0722 3.60853 32.5334 3.06738 31.8686 3.06738C31.2039 3.06738 30.665 3.60853 30.665 4.27607C30.665 4.94362 31.2039 5.48477 31.8686 5.48477Z" fill="url(#paint5_linear)"/>
<path d="M31.8687 5.03458C32.2859 5.03458 32.6241 4.69494 32.6241 4.27596C32.6241 3.85698 32.2859 3.51733 31.8687 3.51733C31.4515 3.51733 31.1133 3.85698 31.1133 4.27596C31.1133 4.69494 31.4515 5.03458 31.8687 5.03458Z" fill="url(#paint6_linear)"/>
<path d="M49.877 62.125H13.8613C13.104 62.125 12.4902 61.5086 12.4902 60.7481C12.4902 58.3072 14.4607 56.3284 16.8914 56.3284H46.8469C49.2776 56.3284 51.2481 58.3072 51.2481 60.7481C51.2481 61.5086 50.6343 62.125 49.877 62.125Z" fill="url(#paint7_linear)"/>
<path d="M8.12607 44.4223H7.23205C6.71927 44.4223 6.30371 44.0048 6.30371 43.49V42.5922C6.30371 42.0772 6.71939 41.6599 7.23205 41.6599H8.12607C8.63886 41.6599 9.05441 42.0774 9.05441 42.5922V43.49C9.05441 44.0048 8.63886 44.4223 8.12607 44.4223Z" fill="url(#paint8_linear)"/>
</g>
<defs>
<linearGradient id="paint0_linear" x1="28.5603" y1="50.4745" x2="35.882" y2="59.5537" gradientUnits="userSpaceOnUse">
<stop stop-color="#0B799D"/>
<stop offset="1" stop-color="#07485E"/>
</linearGradient>
<linearGradient id="paint1_linear" x1="35.8728" y1="52.7577" x2="32.894" y2="40.2725" gradientUnits="userSpaceOnUse">
<stop stop-color="#07485E" stop-opacity="0"/>
<stop offset="1" stop-color="#03232E"/>
</linearGradient>
<linearGradient id="paint2_linear" x1="19.137" y1="10.688" x2="60.9409" y2="52.3155" gradientUnits="userSpaceOnUse">
<stop stop-color="#0B799D"/>
<stop offset="1" stop-color="#07485E"/>
</linearGradient>
<linearGradient id="paint3_linear" x1="53.0623" y1="44.757" x2="3.65024" y2="-4.44675" gradientUnits="userSpaceOnUse">
<stop stop-color="#0B799D"/>
<stop offset="1" stop-color="#07485E"/>
</linearGradient>
<linearGradient id="paint4_linear" x1="18.3083" y1="9.85624" x2="45.5644" y2="36.9972" gradientUnits="userSpaceOnUse">
<stop stop-color="#EDF5FF"/>
<stop offset="1" stop-color="#D5E8FE"/>
</linearGradient>
<linearGradient id="paint5_linear" x1="33.6741" y1="6.08917" x2="29.5477" y2="1.98026" gradientUnits="userSpaceOnUse">
<stop stop-color="#0B799D"/>
<stop offset="1" stop-color="#07485E"/>
</linearGradient>
<linearGradient id="paint6_linear" x1="30.7356" y1="3.13814" x2="33.3252" y2="5.71688" gradientUnits="userSpaceOnUse">
<stop stop-color="#0B799D"/>
<stop offset="1" stop-color="#07485E"/>
</linearGradient>
<linearGradient id="paint7_linear" x1="30.6503" y1="57.1131" x2="35.1627" y2="69.4697" gradientUnits="userSpaceOnUse">
<stop stop-color="#0B799D"/>
<stop offset="1" stop-color="#07485E"/>
</linearGradient>
<linearGradient id="paint8_linear" x1="7.01119" y1="42.3704" x2="10.0024" y2="45.349" gradientUnits="userSpaceOnUse">
<stop stop-color="#B9DD39"/>
<stop offset="1" stop-color="#0B799D"/>
</linearGradient>
<clipPath id="clip0">
<rect width="62.0596" height="62.3226" fill="white" transform="translate(0.838867 0.580566)"/>
</clipPath>
</defs>
</svg>
