<svg width="24" height="24" viewBox="0 0 24 24" fill="none" xmlns="http://www.w3.org/2000/svg">
<path d="M12.9297 7.64685C12.6245 7.61384 12.3144 7.59492 12 7.59021C10.6263 7.59631 9.20236 7.93044 7.85449 8.57069C6.85372 9.06565 5.87885 9.76441 5.03223 10.6263C4.61643 11.0663 4.08575 11.7034 4 12.3832C4.01013 12.972 4.64204 13.6988 5.03223 14.14C5.82613 14.9681 6.77561 15.6469 7.85449 16.1957C7.89116 16.2135 7.92796 16.2311 7.96484 16.2484L6.96388 17.9964L8.32395 18.8003L15.6762 5.99981L14.367 5.19971L12.9297 7.64685ZM16.0342 8.51991L15.0351 10.2513C15.4947 10.8484 15.7676 11.5847 15.7676 12.3832C15.7676 14.3733 14.0806 15.9867 11.999 15.9867C11.909 15.9867 11.8218 15.977 11.7334 15.9711L11.0723 17.1156C11.3772 17.1483 11.6855 17.172 12 17.1761C13.375 17.17 14.7981 16.832 16.1445 16.1957C17.1453 15.7007 18.1211 15.002 18.9678 14.14C19.3836 13.7 19.9142 13.0629 20 12.3832C19.9899 11.7944 19.3579 11.0676 18.9678 10.6263C18.1739 9.79825 17.2234 9.11949 16.1445 8.57067C16.1081 8.55301 16.0708 8.53713 16.0342 8.51991ZM11.999 8.77968C12.0903 8.77968 12.1809 8.78333 12.2705 8.78944L11.4961 10.1303C10.4092 10.3506 9.59375 11.2753 9.59375 12.3822C9.59375 12.6603 9.64496 12.9265 9.73925 13.1732C9.73936 13.1735 9.73915 13.1739 9.73925 13.1742L8.96288 14.5189C8.5022 13.9213 8.23045 13.1825 8.23045 12.3832C8.23047 10.3931 9.91744 8.77967 11.999 8.77968ZM14.2519 11.6068L12.5068 14.6303C13.5879 14.4058 14.3975 13.4853 14.3975 12.3822C14.3975 12.1092 14.343 11.8497 14.2519 11.6068Z" fill="#61708B"/>
</svg>
