<svg width="24" height="24" viewBox="0 0 24 24" fill="none" xmlns="http://www.w3.org/2000/svg">
<path d="M14.3979 11.7921C14.3979 13.0631 13.3224 14.0935 11.9957 14.0935C10.6689 14.0935 9.59341 13.0631 9.59341 11.7921C9.59341 10.521 10.6689 9.49056 11.9957 9.49056C13.3224 9.49055 14.3979 10.521 14.3979 11.7921ZM12 7C10.6263 7.00609 9.20248 7.34051 7.85461 7.98076C6.85384 8.47572 5.87853 9.17404 5.03192 10.036C4.61611 10.476 4.08575 11.1131 4 11.7928C4.01013 12.3816 4.64173 13.1084 5.03192 13.5496C5.82583 14.3777 6.77573 15.0565 7.85461 15.6054C9.11156 16.2154 10.5028 16.5666 12 16.5861C13.375 16.5799 14.7985 16.2417 16.1449 15.6054C17.1457 15.1104 18.1215 14.4116 18.9681 13.5496C19.3839 13.1097 19.9142 12.4725 20 11.7928C19.9899 11.204 19.3583 10.4772 18.9681 10.0359C18.1742 9.20787 17.2238 8.52956 16.1449 7.98073C14.8886 7.37119 13.4939 7.02239 12 7ZM11.999 8.18997C14.0806 8.18997 15.768 9.80323 15.768 11.7933C15.768 13.7834 14.0806 15.3967 11.999 15.3967C9.9174 15.3967 8.22999 13.7834 8.22999 11.7933C8.22999 9.80323 9.9174 8.18997 11.999 8.18997Z" fill="#61708B"/>
</svg>
