<svg width="20" height="20" viewBox="0 0 20 20" fill="none" xmlns="http://www.w3.org/2000/svg">
<path d="M9.99999 17.5C9.46249 17.0233 8.85499 16.5275 8.21249 16H8.20416C5.94166 14.15 3.37749 12.0567 2.24499 9.54832C1.87292 8.74976 1.67575 7.88093 1.66665 6.99999C1.66417 5.79123 2.14897 4.63248 3.0115 3.78563C3.87403 2.93878 5.04148 2.47532 6.24999 2.49999C7.23385 2.50154 8.19652 2.78589 9.02333 3.31916C9.38663 3.55497 9.71535 3.8402 9.99999 4.16666C10.2862 3.84148 10.615 3.55641 10.9775 3.31916C11.8039 2.78579 12.7664 2.50142 13.75 2.49999C14.9585 2.47532 16.126 2.93878 16.9885 3.78563C17.851 4.63248 18.3358 5.79123 18.3333 6.99999C18.3248 7.88234 18.1276 8.75265 17.755 9.55249C16.6225 12.0608 14.0592 14.1533 11.7967 16L11.7883 16.0067C11.145 16.5308 10.5383 17.0267 10.0008 17.5067L9.99999 17.5ZM6.24999 4.16666C5.47375 4.15694 4.72505 4.45403 4.16666 4.99332C3.62865 5.5218 3.32796 6.24586 3.33326 6.99999C3.34277 7.64207 3.48818 8.27487 3.75999 8.85666C4.29459 9.93891 5.01592 10.9184 5.89083 11.75C6.71666 12.5833 7.66666 13.39 8.48833 14.0683C8.71583 14.2558 8.94749 14.445 9.17916 14.6342L9.32499 14.7533C9.54749 14.935 9.77749 15.1233 9.99999 15.3083L10.0108 15.2983L10.0158 15.2942H10.0208L10.0283 15.2883H10.0325H10.0367L10.0517 15.2758L10.0858 15.2483L10.0917 15.2433L10.1008 15.2367H10.1058L10.1133 15.23L10.6667 14.7758L10.8117 14.6567C11.0458 14.4658 11.2775 14.2767 11.505 14.0892C12.3267 13.4108 13.2775 12.605 14.1033 11.7675C14.9784 10.9363 15.6997 9.95709 16.2342 8.87499C16.5109 8.28816 16.6584 7.64875 16.6667 6.99999C16.6701 6.24819 16.3696 5.5269 15.8333 4.99999C15.276 4.45826 14.5272 4.15873 13.75 4.16666C12.8016 4.1586 11.8949 4.55613 11.2583 5.25916L9.99999 6.70916L8.74166 5.25916C8.10505 4.55613 7.19839 4.1586 6.24999 4.16666Z" fill="#D0D0D0"/>
</svg>
