<svg width="64" height="63" viewBox="0 0 64 63" fill="none" xmlns="http://www.w3.org/2000/svg">
<g clip-path="url(#clip0)">
<path d="M55.7709 57.7245H8.22949C5.69569 57.7245 3.6416 55.6704 3.6416 53.1366V13.5496C3.6416 11.0158 5.69569 8.96167 8.22949 8.96167H55.7709C58.3047 8.96167 60.3588 11.0158 60.3588 13.5496V53.1366C60.3588 55.6704 58.3047 57.7245 55.7709 57.7245Z" fill="url(#paint0_linear)"/>
<path d="M54.7106 56.6369H9.28965C6.8688 56.6369 4.90625 54.6744 4.90625 52.2535V14.4322C4.90625 12.0114 6.86868 10.0488 9.28965 10.0488H54.7105C57.1314 10.0488 59.0939 12.0113 59.0939 14.4322V52.2536C59.094 54.6745 57.1315 56.6369 54.7106 56.6369Z" fill="url(#paint1_linear)"/>
<path d="M57.2843 21.7667L45.8489 1.96026C45.0873 0.640892 43.4001 0.18881 42.0807 0.950679L6.02637 21.7667H57.2843Z" fill="url(#paint2_linear)"/>
<path d="M3.6416 37.7075H60.3588V22.6853C60.3588 20.7892 58.8218 19.2522 56.9257 19.2522H7.0747C5.17861 19.2522 3.6416 20.7892 3.6416 22.6853V37.7075Z" fill="url(#paint3_linear)"/>
<path d="M3.6416 32.0579V53.1368C3.6416 55.6706 5.69569 57.7248 8.22962 57.7248H55.7709C58.3047 57.7248 60.3588 55.6707 60.3588 53.1369V32.0579C60.3588 30.4928 59.0901 29.2241 57.5251 29.2241H6.47533C4.91033 29.2241 3.6416 30.4927 3.6416 32.0579Z" fill="url(#paint4_linear)"/>
<path d="M51.8018 21.1858V57.725H55.7706C58.3044 57.725 60.3585 55.6709 60.3585 53.1371V29.7425L51.8018 21.1858Z" fill="url(#paint5_linear)"/>
<path d="M47.9335 62.8689L8.11921 58.2448C5.56691 57.9483 3.6416 55.7866 3.6416 53.2171V13.2078C3.6416 14.0676 4.28589 14.7909 5.13978 14.8901L49.1012 19.9959C51.6535 20.2925 53.5788 22.4541 53.5788 25.0236V57.8413C53.5788 60.868 50.9399 63.2182 47.9335 62.8689Z" fill="url(#paint6_linear)"/>
<path d="M47.9335 54.8771L8.11921 50.253C5.56691 49.9565 3.6416 47.7948 3.6416 45.2253V53.217C3.6416 55.7865 5.56691 57.9483 8.11921 58.2447L47.9335 62.8687C50.9399 63.2179 53.5789 60.8678 53.5789 57.841V49.8494C53.5788 52.8762 50.9399 55.2262 47.9335 54.8771Z" fill="url(#paint7_linear)"/>
<path d="M7.2113 19.4436C7.17795 19.4436 7.14411 19.4416 7.11015 19.438L5.28818 19.2376C4.78498 19.1822 4.42188 18.7297 4.47726 18.2266C4.53264 17.7235 4.98558 17.3608 5.4883 17.4156L7.31026 17.616C7.81347 17.6714 8.17657 18.124 8.12118 18.627C8.06957 19.0963 7.67251 19.4436 7.2113 19.4436Z" fill="url(#paint8_linear)"/>
<path d="M44.6493 59.8493C44.6108 59.8493 44.5716 59.8467 44.5325 59.8419L40.9914 59.3916C40.4894 59.3278 40.134 58.8689 40.1979 58.3667C40.2618 57.8647 40.7206 57.5113 41.2228 57.5732L44.7638 58.0234C45.2658 58.0872 45.6214 58.5461 45.5574 59.0483C45.4983 59.5111 45.1039 59.8493 44.6493 59.8493ZM48.1347 59.3956C47.791 59.3956 47.4613 59.2012 47.3051 58.8694C47.0893 58.4116 47.2856 57.8654 47.7435 57.6499C48.6734 57.2117 49.3727 56.485 49.6623 55.6558C49.8291 55.1781 50.3521 54.9262 50.8297 55.0927C51.3075 55.2596 51.5597 55.7822 51.3928 56.2601C50.9355 57.5696 49.917 58.6521 48.5247 59.308C48.3985 59.3674 48.2657 59.3956 48.1347 59.3956ZM37.5673 58.9488C37.5288 58.9488 37.4896 58.9462 37.4504 58.9413L33.9094 58.4911C33.4074 58.4273 33.0518 57.9684 33.1159 57.4662C33.1798 56.9642 33.6385 56.6107 34.1408 56.6727L37.6818 57.1229C38.1838 57.1867 38.5394 57.6456 38.4754 58.1478C38.4163 58.6105 38.0217 58.9488 37.5673 58.9488ZM30.4853 58.0481C30.4468 58.0481 30.4077 58.0456 30.3684 58.0407L26.8274 57.5905C26.3254 57.5267 25.9698 57.0678 26.0338 56.5655C26.0977 56.0635 26.5566 55.7084 27.0588 55.772L30.5998 56.2223C31.1018 56.2861 31.4574 56.745 31.3933 57.2472C31.3343 57.7099 30.9397 58.0481 30.4853 58.0481ZM23.403 57.1475C23.3646 57.1475 23.3255 57.1449 23.2862 57.1401L19.745 56.6897C19.2429 56.6258 18.8874 56.167 18.9515 55.6648C19.0154 55.1627 19.4744 54.8092 19.9764 54.8713L23.5176 55.3216C24.0197 55.3855 24.3751 55.8443 24.3111 56.3466C24.2523 56.8095 23.8577 57.1475 23.403 57.1475ZM16.321 56.2469C16.2825 56.2469 16.2435 56.2443 16.2042 56.2394L12.663 55.7891C12.1609 55.7252 11.8054 55.2664 11.8695 54.7641C11.9334 54.262 12.3924 53.9084 12.8944 53.9706L16.4356 54.421C16.9377 54.4849 17.2931 54.9437 17.2291 55.4459C17.1702 55.9088 16.7757 56.2469 16.321 56.2469ZM50.7332 53.3285C50.2269 53.3285 49.8167 52.9183 49.8167 52.4121V48.8425C49.8167 48.3363 50.2269 47.9261 50.7332 47.9261C51.2394 47.9261 51.6496 48.3363 51.6496 48.8425V52.4121C51.6498 52.9183 51.2396 53.3285 50.7332 53.3285ZM50.7332 46.1896C50.2269 46.1896 49.8167 45.7793 49.8167 45.2731V41.7036C49.8167 41.1973 50.2269 40.7871 50.7332 40.7871C51.2394 40.7871 51.6496 41.1973 51.6496 41.7036V45.2731C51.6498 45.7792 51.2396 46.1896 50.7332 46.1896ZM50.7332 39.0505C50.2269 39.0505 49.8167 38.6402 49.8167 38.134V34.5644C49.8167 34.0582 50.2269 33.648 50.7332 33.648C51.2394 33.648 51.6496 34.0582 51.6496 34.5644V38.134C51.6498 38.6401 51.2396 39.0505 50.7332 39.0505ZM50.7332 31.9114C50.2269 31.9114 49.8167 31.5011 49.8167 30.9949V27.4253C49.8167 26.9191 50.2269 26.5089 50.7332 26.5089C51.2394 26.5089 51.6496 26.9191 51.6496 27.4253V30.9949C51.6498 31.501 51.2396 31.9114 50.7332 31.9114ZM49.4514 25.138C49.2251 25.138 48.9984 25.0547 48.8213 24.8868C48.1419 24.2431 47.1992 23.833 46.1664 23.7319L46.1421 23.7293C45.6388 23.6752 45.2747 23.2232 45.329 22.72C45.3832 22.2167 45.835 21.8525 46.3383 21.9069L46.3539 21.9086C47.7814 22.0484 49.1084 22.6339 50.0821 23.5562C50.4496 23.9044 50.4652 24.4845 50.117 24.852C49.9366 25.042 49.6943 25.138 49.4514 25.138ZM42.693 23.3446C42.6596 23.3446 42.6258 23.3426 42.5918 23.339L39.0437 22.9488C38.5406 22.8934 38.1774 22.4409 38.2328 21.9378C38.2881 21.4347 38.7411 21.0726 39.2438 21.1269L42.7919 21.517C43.295 21.5724 43.6582 22.0249 43.6028 22.528C43.5514 22.9972 43.1542 23.3446 42.693 23.3446ZM35.5968 22.5643C35.5635 22.5643 35.5296 22.5624 35.4957 22.5587L31.9474 22.1686C31.4443 22.1132 31.0811 21.6606 31.1365 21.1575C31.1918 20.6543 31.6454 20.2918 32.1475 20.3466L35.6958 20.7367C36.1989 20.7921 36.5621 21.2447 36.5067 21.7478C36.4551 22.217 36.058 22.5643 35.5968 22.5643ZM28.5003 21.7842C28.467 21.7842 28.4331 21.7822 28.3992 21.7786L24.8511 21.3885C24.348 21.3331 23.9847 20.8805 24.0401 20.3774C24.0954 19.8743 24.5481 19.5118 25.0512 19.5665L28.5993 19.9566C29.1024 20.012 29.4656 20.4646 29.4102 20.9677C29.3587 21.4368 28.9617 21.7842 28.5003 21.7842ZM21.404 21.0041C21.3706 21.0041 21.3368 21.0021 21.3028 20.9985L17.7547 20.6083C17.2515 20.5529 16.8884 20.1004 16.9438 19.5973C16.999 19.0943 17.4512 18.732 17.9548 18.7864L21.5029 19.1765C22.006 19.2319 22.3692 19.6844 22.3138 20.1875C22.2625 20.6567 21.8653 21.0041 21.404 21.0041ZM14.3076 20.2238C14.2742 20.2238 14.2404 20.2219 14.2064 20.2182L10.6583 19.8281C10.1552 19.7727 9.79199 19.3201 9.84738 18.817C9.90276 18.3141 10.3551 17.9518 10.8584 18.0061L14.4065 18.3962C14.9097 18.4516 15.2729 18.9042 15.2175 19.4073C15.166 19.8764 14.7688 20.2238 14.3076 20.2238Z" fill="url(#paint9_linear)"/>
<path d="M9.2304 55.3452C9.19193 55.3452 9.15298 55.3427 9.11366 55.3377L7.29523 55.1066C6.79312 55.0428 6.43757 54.5839 6.50159 54.0818C6.56538 53.5797 7.02428 53.2245 7.52639 53.2881L9.34482 53.5193C9.84693 53.5831 10.2025 54.042 10.1385 54.5441C10.0795 55.007 9.68491 55.3452 9.2304 55.3452Z" fill="url(#paint10_linear)"/>
<path d="M42.9027 7.40538L37.0371 10.5972C36.273 11.0129 35.3166 10.7306 34.9008 9.96657C34.4851 9.20251 34.7674 8.24613 35.5315 7.83032L41.3972 4.6386C42.1613 4.22291 43.1177 4.50519 43.5335 5.26925C43.9491 6.03319 43.6669 6.9897 42.9027 7.40538Z" fill="#61DB99"/>
<path d="M53.5788 44.8662L47.7578 39.0453C46.9366 38.151 45.758 37.5901 44.4481 37.5901C41.9667 37.5901 39.9551 39.6018 39.9551 42.0832C39.9551 43.393 40.516 44.5717 41.4103 45.3928L53.5789 57.5614V44.8662H53.5788Z" fill="url(#paint11_linear)"/>
<path d="M44.4482 46.5757C46.9296 46.5757 48.9412 44.5641 48.9412 42.0827C48.9412 39.6012 46.9296 37.5896 44.4482 37.5896C41.9667 37.5896 39.9551 39.6012 39.9551 42.0827C39.9551 44.5641 41.9667 46.5757 44.4482 46.5757Z" fill="url(#paint12_linear)"/>
<path d="M44.4475 45.1833C46.16 45.1833 47.5483 43.795 47.5483 42.0825C47.5483 40.37 46.16 38.9817 44.4475 38.9817C42.735 38.9817 41.3467 40.37 41.3467 42.0825C41.3467 43.795 42.735 45.1833 44.4475 45.1833Z" fill="url(#paint13_linear)"/>
<path d="M43.2695 41.5462C43.6239 41.5462 43.9111 41.2589 43.9111 40.9045C43.9111 40.5502 43.6239 40.2629 43.2695 40.2629C42.9152 40.2629 42.6279 40.5502 42.6279 40.9045C42.6279 41.2589 42.9152 41.5462 43.2695 41.5462Z" fill="url(#paint14_linear)"/>
<path d="M45.626 41.5462C45.9803 41.5462 46.2676 41.2589 46.2676 40.9045C46.2676 40.5502 45.9803 40.2629 45.626 40.2629C45.2716 40.2629 44.9844 40.5502 44.9844 40.9045C44.9844 41.2589 45.2716 41.5462 45.626 41.5462Z" fill="url(#paint15_linear)"/>
<path d="M43.2695 43.9033C43.6239 43.9033 43.9111 43.6161 43.9111 43.2617C43.9111 42.9074 43.6239 42.6201 43.2695 42.6201C42.9152 42.6201 42.6279 42.9074 42.6279 43.2617C42.6279 43.6161 42.9152 43.9033 43.2695 43.9033Z" fill="url(#paint16_linear)"/>
<path d="M45.626 43.9033C45.9803 43.9033 46.2676 43.6161 46.2676 43.2617C46.2676 42.9074 45.9803 42.6201 45.626 42.6201C45.2716 42.6201 44.9844 42.9074 44.9844 43.2617C44.9844 43.6161 45.2716 43.9033 45.626 43.9033Z" fill="url(#paint17_linear)"/>
</g>
<defs>
<linearGradient id="paint0_linear" x1="32.927" y1="6.15098" x2="32.5959" y2="15.8604" gradientUnits="userSpaceOnUse">
<stop stop-color="#FFB92D"/>
<stop offset="1" stop-color="#F59500"/>
</linearGradient>
<linearGradient id="paint1_linear" x1="34.5147" y1="12.5977" x2="33.6129" y2="20.0359" gradientUnits="userSpaceOnUse">
<stop stop-color="#FFB92D"/>
<stop offset="1" stop-color="#F59500"/>
</linearGradient>
<linearGradient id="paint2_linear" x1="31.6546" y1="12.8177" x2="31.6546" y2="18.484" gradientUnits="userSpaceOnUse">
<stop stop-color="#A7F3CE"/>
<stop offset="1" stop-color="#61DB99"/>
</linearGradient>
<linearGradient id="paint3_linear" x1="31.9996" y1="22.6266" x2="31.9996" y2="38.5271" gradientUnits="userSpaceOnUse">
<stop stop-color="#FF4C54"/>
<stop offset="1" stop-color="#BE3F45"/>
</linearGradient>
<linearGradient id="paint4_linear" x1="31.9996" y1="34.4335" x2="31.9996" y2="58.9905" gradientUnits="userSpaceOnUse">
<stop stop-color="#FF4C54"/>
<stop offset="1" stop-color="#BE3F45"/>
</linearGradient>
<linearGradient id="paint5_linear" x1="57.1318" y1="39.4558" x2="52.9941" y2="39.4558" gradientUnits="userSpaceOnUse">
<stop stop-color="#BE3F45" stop-opacity="0"/>
<stop offset="1" stop-color="#BE3F45"/>
</linearGradient>
<linearGradient id="paint6_linear" x1="20.1273" y1="35.2081" x2="41.176" y2="44.9175" gradientUnits="userSpaceOnUse">
<stop stop-color="#FFB92D"/>
<stop offset="1" stop-color="#F59500"/>
</linearGradient>
<linearGradient id="paint7_linear" x1="27.9391" y1="56.8263" x2="27.0691" y2="63.4764" gradientUnits="userSpaceOnUse">
<stop stop-color="#BE3F45" stop-opacity="0"/>
<stop offset="1" stop-color="#BE3F45"/>
</linearGradient>
<linearGradient id="paint8_linear" x1="6.29904" y1="17.411" x2="6.29904" y2="59.9373" gradientUnits="userSpaceOnUse">
<stop stop-color="#FFF465"/>
<stop offset="1" stop-color="#FFE600"/>
</linearGradient>
<linearGradient id="paint9_linear" x1="30.7452" y1="17.4124" x2="30.7452" y2="59.8495" gradientUnits="userSpaceOnUse">
<stop stop-color="#FFF465"/>
<stop offset="1" stop-color="#FFE600"/>
</linearGradient>
<linearGradient id="paint10_linear" x1="8.31978" y1="17.4101" x2="8.31978" y2="59.9352" gradientUnits="userSpaceOnUse">
<stop stop-color="#FFF465"/>
<stop offset="1" stop-color="#FFE600"/>
</linearGradient>
<linearGradient id="paint11_linear" x1="50.4441" y1="48.0806" x2="37.8528" y2="35.4893" gradientUnits="userSpaceOnUse">
<stop stop-color="#BE3F45" stop-opacity="0"/>
<stop offset="1" stop-color="#BE3F45"/>
</linearGradient>
<linearGradient id="paint12_linear" x1="44.4472" y1="39.2628" x2="44.4472" y2="45.7601" gradientUnits="userSpaceOnUse">
<stop stop-color="#FF4C54"/>
<stop offset="1" stop-color="#BE3F45"/>
</linearGradient>
<linearGradient id="paint13_linear" x1="44.4465" y1="44.0296" x2="44.4465" y2="39.5461" gradientUnits="userSpaceOnUse">
<stop stop-color="#FF4C54"/>
<stop offset="1" stop-color="#BE3F45"/>
</linearGradient>
<linearGradient id="paint14_linear" x1="37.1875" y1="14.0494" x2="38.4705" y2="19.7158" gradientUnits="userSpaceOnUse">
<stop stop-color="#A7F3CE"/>
<stop offset="1" stop-color="#61DB99"/>
</linearGradient>
<linearGradient id="paint15_linear" x1="39.5438" y1="14.0497" x2="40.8269" y2="19.716" gradientUnits="userSpaceOnUse">
<stop stop-color="#A7F3CE"/>
<stop offset="1" stop-color="#61DB99"/>
</linearGradient>
<linearGradient id="paint16_linear" x1="36.6797" y1="14.1643" x2="37.9628" y2="19.8307" gradientUnits="userSpaceOnUse">
<stop stop-color="#A7F3CE"/>
<stop offset="1" stop-color="#61DB99"/>
</linearGradient>
<linearGradient id="paint17_linear" x1="39.0361" y1="14.1646" x2="40.3192" y2="19.8309" gradientUnits="userSpaceOnUse">
<stop stop-color="#A7F3CE"/>
<stop offset="1" stop-color="#61DB99"/>
</linearGradient>
<clipPath id="clip0">
<rect width="62.3226" height="62.3226" fill="white" transform="translate(0.838867 0.580566)"/>
</clipPath>
</defs>
</svg>
