<svg width="32" height="32" viewBox="0 0 32 32" fill="none" xmlns="http://www.w3.org/2000/svg">
<g clip-path="url(#clip0)">
<path d="M31.9686 9.40809C31.8936 7.7078 31.6187 6.53888 31.2248 5.52598C30.8185 4.45082 30.1933 3.48823 29.3743 2.68802C28.5741 1.87537 27.6052 1.2439 26.5425 0.843915C25.5237 0.450039 24.3609 0.175083 22.6606 0.100117C20.9477 0.0188025 20.4039 0 16.0593 0C11.7147 0 11.1709 0.0188025 9.46423 0.0937683C7.76395 0.168734 6.59502 0.443934 5.58237 0.837566C4.50697 1.2439 3.54438 1.86902 2.74417 2.68802C1.93152 3.48823 1.30029 4.45717 0.900066 5.51988C0.506191 6.53888 0.231235 7.70146 0.156269 9.40174C0.0749548 11.1147 0.0561523 11.6585 0.0561523 16.0031C0.0561523 20.3477 0.0749548 20.8915 0.149921 22.5982C0.224886 24.2984 0.500086 25.4674 0.893961 26.4803C1.30029 27.5554 1.93152 28.518 2.74417 29.3182C3.54438 30.1309 4.51332 30.7624 5.57602 31.1623C6.59502 31.5562 7.7576 31.8312 9.45812 31.9061C11.1645 31.9813 11.7086 31.9999 16.0532 31.9999C20.3977 31.9999 20.9416 31.9813 22.6482 31.9061C24.3485 31.8312 25.5174 31.5562 26.53 31.1623C28.6806 30.3309 30.3809 28.6306 31.2123 26.4803C31.606 25.4613 31.8812 24.2984 31.9561 22.5982C32.0311 20.8915 32.0499 20.3477 32.0499 16.0031C32.0499 11.6585 32.0436 11.1147 31.9686 9.40809ZM29.0869 22.4731C29.0181 24.0359 28.7556 24.8799 28.5368 25.4425C27.9991 26.8365 26.8927 27.943 25.4986 28.4807C24.936 28.6995 24.086 28.962 22.5293 29.0306C20.8414 29.1058 20.3352 29.1243 16.0656 29.1243C11.796 29.1243 11.2834 29.1058 9.60171 29.0306C8.0389 28.962 7.19499 28.6995 6.63238 28.4807C5.93864 28.2243 5.30717 27.8179 4.79462 27.2866C4.26327 26.7677 3.85694 26.1426 3.60054 25.4488C3.38175 24.8862 3.11925 24.0359 3.05063 22.4795C2.97542 20.7917 2.95686 20.2852 2.95686 16.0156C2.95686 11.7459 2.97542 11.2334 3.05063 9.55192C3.11925 7.98911 3.38175 7.14519 3.60054 6.58258C3.85694 5.8886 4.26327 5.25737 4.80097 4.74458C5.31962 4.21323 5.94475 3.8069 6.63873 3.55074C7.20134 3.33195 8.0516 3.06945 9.60805 3.00059C11.2959 2.92562 11.8023 2.90682 16.0717 2.90682C20.3477 2.90682 20.8539 2.92562 22.5356 3.00059C24.0984 3.06945 24.9423 3.33195 25.5049 3.55074C26.1987 3.8069 26.8301 4.21323 27.3427 4.74458C27.8741 5.26348 28.2804 5.8886 28.5368 6.58258C28.7556 7.14519 29.0181 7.99521 29.0869 9.55192C29.1619 11.2397 29.1807 11.7459 29.1807 16.0156C29.1807 20.2852 29.1619 20.7853 29.0869 22.4731Z" fill="#959595"/>
<path d="M16.0592 7.78259C11.521 7.78259 7.83887 11.4645 7.83887 16.0029C7.83887 20.5414 11.521 24.2233 16.0592 24.2233C20.5977 24.2233 24.2796 20.5414 24.2796 16.0029C24.2796 11.4645 20.5977 7.78259 16.0592 7.78259ZM16.0592 21.3353C13.115 21.3353 10.7269 18.9474 10.7269 16.0029C10.7269 13.0585 13.115 10.6706 16.0592 10.6706C19.0036 10.6706 21.3916 13.0585 21.3916 16.0029C21.3916 18.9474 19.0036 21.3353 16.0592 21.3353Z" fill="#959595"/>
<path d="M26.5245 7.45765C26.5245 8.51743 25.6651 9.37673 24.6051 9.37673C23.5453 9.37673 22.686 8.51743 22.686 7.45765C22.686 6.39763 23.5453 5.53857 24.6051 5.53857C25.6651 5.53857 26.5245 6.39763 26.5245 7.45765Z" fill="#959595"/>
</g>
<defs>
<clipPath id="clip0">
<rect width="32" height="32" fill="white"/>
</clipPath>
</defs>
</svg>
