<svg width="20" height="20" viewBox="0 0 20 20" fill="none" xmlns="http://www.w3.org/2000/svg">
<path d="M10 18.3334C5.39973 18.3284 1.67172 14.6004 1.66667 10.0001V9.83343C1.75828 5.25387 5.52883 1.60673 10.1089 1.6675C14.689 1.72827 18.3614 5.47417 18.3315 10.0545C18.3016 14.6349 14.5805 18.3325 10 18.3334ZM9.98667 16.6668H10C13.6806 16.6631 16.6618 13.6774 16.66 9.99677C16.6582 6.31617 13.6739 3.33343 9.99334 3.33343C6.31274 3.33343 3.32851 6.31617 3.32667 9.99677C3.32483 13.6774 6.30608 16.6631 9.98667 16.6668ZM10.8333 15.0001H9.16667V13.3334H10.8333V15.0001ZM10.8333 12.5001H9.16667C9.14034 11.4148 9.70512 10.4008 10.6417 9.85176C11.1917 9.4301 11.6667 9.06676 11.6667 8.33343C11.6667 7.41296 10.9205 6.66676 10 6.66676C9.07953 6.66676 8.33334 7.41296 8.33334 8.33343H6.66667V8.25843C6.68007 7.06754 7.32778 5.97427 8.36581 5.39043C9.40385 4.80659 10.6745 4.82088 11.6991 5.42793C12.7238 6.03497 13.3467 7.14255 13.3333 8.33343C13.2737 9.23261 12.7914 10.0503 12.0333 10.5376C11.3481 10.9678 10.904 11.6941 10.8333 12.5001Z" fill="#D3D3D3"/>
</svg>
