<svg width="20" height="20" viewBox="0 0 20 20" fill="none" xmlns="http://www.w3.org/2000/svg">
<path d="M10 18.3333C5.39763 18.3333 1.66667 14.6024 1.66667 9.99999C1.66667 5.39762 5.39763 1.66666 10 1.66666C14.6024 1.66666 18.3333 5.39762 18.3333 9.99999C18.3283 14.6003 14.6003 18.3283 10 18.3333ZM9.16667 14.1667V15.8333H10.8333V14.1667H9.16667ZM10 5.83332C10.9205 5.83332 11.6667 6.57952 11.6667 7.49999C11.6696 7.94226 11.492 8.3666 11.175 8.67499L10.1417 9.72499C9.51787 10.3514 9.16735 11.1993 9.16667 12.0833V12.5H10.8333C10.7686 11.6042 11.1299 10.7302 11.8083 10.1417L12.5583 9.37499C13.0567 8.87859 13.3358 8.20341 13.3334 7.49999C13.3334 5.65904 11.841 4.16666 10 4.16666C8.15906 4.16666 6.66667 5.65904 6.66667 7.49999H8.33334C8.33334 6.57952 9.07953 5.83332 10 5.83332Z" fill="#003CAA"/>
</svg>
