<svg width="20" height="20" viewBox="0 0 20 20" fill="none" xmlns="http://www.w3.org/2000/svg">
<path d="M11.5167 18.3333H8.48335C8.09178 18.3333 7.75298 18.0608 7.66918 17.6783L7.33001 16.1083C6.87756 15.9101 6.44853 15.6621 6.05085 15.3691L4.52001 15.8566C4.14668 15.9757 3.74084 15.8185 3.54501 15.4791L2.02501 12.8533C1.83134 12.5137 1.89806 12.0854 2.18585 11.8208L3.37335 10.7375C3.31934 10.2467 3.31934 9.75153 3.37335 9.26079L2.18585 8.17996C1.89764 7.91527 1.83089 7.48639 2.02501 7.14663L3.54168 4.51913C3.7375 4.17971 4.14335 4.02257 4.51668 4.14163L6.04751 4.62913C6.2509 4.47842 6.46262 4.33931 6.68168 4.21246C6.89196 4.09387 7.10838 3.9865 7.33001 3.89079L7.67001 2.32246C7.75341 1.93993 8.09184 1.66704 8.48335 1.66663H11.5167C11.9082 1.66704 12.2466 1.93993 12.33 2.32246L12.6733 3.89163C12.9073 3.99456 13.1352 4.11086 13.3558 4.23996C13.5619 4.35894 13.7611 4.48942 13.9525 4.63079L15.4842 4.14329C15.8573 4.02468 16.2626 4.18176 16.4583 4.52079L17.975 7.14829C18.1687 7.48786 18.102 7.91622 17.8142 8.18079L16.6267 9.26413C16.6807 9.75487 16.6807 10.2501 16.6267 10.7408L17.8142 11.8241C18.102 12.0887 18.1687 12.5171 17.975 12.8566L16.4583 15.4841C16.2626 15.8232 15.8573 15.9802 15.4842 15.8616L13.9525 15.3741C13.7587 15.5169 13.5573 15.649 13.3492 15.77C13.1307 15.8965 12.9054 16.0109 12.6742 16.1125L12.33 17.6783C12.2463 18.0605 11.9079 18.333 11.5167 18.3333ZM9.99668 6.66663C8.15573 6.66663 6.66335 8.15901 6.66335 9.99996C6.66335 11.8409 8.15573 13.3333 9.99668 13.3333C11.8376 13.3333 13.33 11.8409 13.33 9.99996C13.33 8.15901 11.8376 6.66663 9.99668 6.66663Z" fill="#003CAA"/>
</svg>
