<svg width="20" height="20" viewBox="0 0 20 20" fill="none" xmlns="http://www.w3.org/2000/svg">
<path d="M11.5167 18.3333H8.48333C8.09176 18.3333 7.75296 18.0608 7.66917 17.6783L7.33 16.1083C6.87754 15.9101 6.44852 15.6622 6.05083 15.3692L4.52 15.8567C4.14667 15.9757 3.74082 15.8186 3.545 15.4792L2.025 12.8533C1.83132 12.5138 1.89805 12.0854 2.18583 11.8208L3.37333 10.7375C3.31933 10.2467 3.31933 9.75156 3.37333 9.26082L2.18583 8.17999C1.89762 7.9153 1.83087 7.48642 2.025 7.14666L3.54166 4.51916C3.73749 4.17974 4.14333 4.0226 4.51666 4.14166L6.0475 4.62916C6.25088 4.47845 6.46261 4.33934 6.68166 4.21249C6.89195 4.0939 7.10836 3.98653 7.33 3.89082L7.67 2.32249C7.75339 1.93996 8.09182 1.66707 8.48333 1.66666H11.5167C11.9082 1.66707 12.2466 1.93996 12.33 2.32249L12.6733 3.89166C12.9073 3.99459 13.1352 4.11089 13.3558 4.23999C13.5616 4.359 13.7605 4.48948 13.9517 4.63082L15.4833 4.14332C15.8564 4.02471 16.2618 4.18179 16.4575 4.52082L17.9742 7.14832C18.1678 7.48789 18.1011 7.91625 17.8133 8.18082L16.6258 9.26416C16.6798 9.7549 16.6798 10.2501 16.6258 10.7408L17.8133 11.8242C18.1011 12.0887 18.1678 12.5171 17.9742 12.8567L16.4575 15.4842C16.2618 15.8232 15.8564 15.9803 15.4833 15.8617L13.9517 15.3742C13.7579 15.5169 13.5564 15.649 13.3483 15.77C13.1299 15.8966 12.9045 16.0109 12.6733 16.1125L12.33 17.6783C12.2463 18.0605 11.9079 18.333 11.5167 18.3333ZM6.35 13.5242L7.03333 14.0242C7.18737 14.1376 7.34793 14.242 7.51417 14.3367C7.67058 14.4272 7.83164 14.5096 7.99667 14.5833L8.77417 14.9242L9.155 16.6667H10.8467L11.2275 14.9233L12.005 14.5825C12.3444 14.4328 12.6666 14.2467 12.9658 14.0275L13.65 13.5275L15.3508 14.0692L16.1967 12.6042L14.8775 11.4017L14.9708 10.5583C15.0118 10.1895 15.0118 9.81719 14.9708 9.44832L14.8775 8.60499L16.1975 7.39999L15.3508 5.93416L13.65 6.47582L12.9658 5.97582C12.6665 5.75558 12.3444 5.56812 12.005 5.41666L11.2275 5.07582L10.8467 3.33332H9.155L8.7725 5.07666L7.99667 5.41666C7.8315 5.48919 7.67043 5.5707 7.51417 5.66082C7.34895 5.75526 7.18924 5.85904 7.03583 5.97166L6.35167 6.47166L4.65166 5.92999L3.80417 7.39999L5.12333 8.60082L5.03 9.44499C4.989 9.81385 4.989 10.1861 5.03 10.555L5.12333 11.3983L3.80417 12.6008L4.65 14.0658L6.35 13.5242ZM9.99667 13.3333C8.15572 13.3333 6.66333 11.8409 6.66333 9.99999C6.66333 8.15904 8.15572 6.66666 9.99667 6.66666C11.8376 6.66666 13.33 8.15904 13.33 9.99999C13.3277 11.84 11.8367 13.331 9.99667 13.3333ZM9.99667 8.33332C9.08616 8.33425 8.3449 9.0657 8.33186 9.97611C8.31881 10.8865 9.0388 11.6389 9.94891 11.6659C10.859 11.6929 11.6224 10.9846 11.6633 10.075V10.4083V9.99999C11.6633 9.07952 10.9171 8.33332 9.99667 8.33332Z" fill="#D0D0D0"/>
</svg>
